<svg xmlns="http://www.w3.org/2000/svg" viewBox="0 0 664.14 639.54"><defs><style>.cls-1{fill:none;}.cls-1,.cls-7{stroke:#000;stroke-miterlimit:10;stroke-width:0.25px;}.cls-2{fill:#c7c8ca;}.cls-3{font-size:38px;font-family:AauxNext-Bold, Aaux Next;font-weight:700;}.cls-4{font-family:AauxNext-Regular, Aaux Next;font-weight:400;}.cls-5{letter-spacing:-0.04em;}.cls-6{letter-spacing:-0.02em;}.cls-7{fill:#e6e7e8;}.cls-8{letter-spacing:-0.01em;}.cls-9{letter-spacing:-0.02em;}</style></defs><title>results</title><g id="Layer_8" data-name="Layer 8"><path class="cls-1" d="M119.84,238.16A92,92,0,0,1,157.28,62.05"/><path class="cls-1" d="M196.08,237.54a92.23,92.23,0,0,1-76.24.62"/><path class="cls-2" d="M196.12,237.53l-38.75-83.66-.09.2v-92a92,92,0,0,1,38.8,175.49"/><text class="cls-3" transform="translate(212.15 119.56)">24 min<tspan class="cls-4"><tspan x="0" y="45.6">t</tspan><tspan class="cls-5" x="10.98" y="45.6">r</tspan><tspan x="24.02" y="45.6">a</tspan><tspan class="cls-6" x="42.03" y="45.6">v</tspan><tspan x="59.09" y="45.6">el</tspan><tspan class="cls-6" x="85.73" y="45.6"> </tspan><tspan x="95.57" y="45.6">time</tspan></tspan></text><path class="cls-2" d="M302.23,365.62h1.22v38.85a4.87,4.87,0,0,0,9.71,0V337.81h2.24v23.92a3.66,3.66,0,0,0,7.31,0V334.1s-1.79-9.37-10.24-9.74H295l-2.47,0c-9-.05-10.82,9.75-10.82,9.75v27.63a3.66,3.66,0,0,0,7.31,0V337.81h2.24v66.66a4.87,4.87,0,0,0,9.7,0V365.62Z"/><circle class="cls-2" cx="302.23" cy="313.77" r="8.44"/><path class="cls-2" d="M349.59,365.62h1.22v38.85a4.87,4.87,0,0,0,9.71,0V337.81h2.24v23.92a3.66,3.66,0,0,0,7.31,0V334.1s-1.79-9.37-10.24-9.74H342.4l-2.47,0c-9-.05-10.82,9.75-10.82,9.75v27.63a3.66,3.66,0,0,0,7.31,0V337.81h2.24v66.66a4.87,4.87,0,0,0,9.7,0V365.62Z"/><circle class="cls-2" cx="349.59" cy="313.77" r="8.44"/><path class="cls-2" d="M397,365.62h1.22v38.85a4.87,4.87,0,0,0,9.71,0V337.81h2.24v23.92a3.66,3.66,0,0,0,7.31,0V334.1s-1.79-9.37-10.24-9.74H389.76l-2.47,0c-9-.05-10.82,9.75-10.82,9.75v27.63a3.66,3.66,0,0,0,7.31,0V337.81H386v66.66a4.87,4.87,0,0,0,9.7,0V365.62Z"/><circle class="cls-2" cx="396.95" cy="313.77" r="8.44"/><path class="cls-2" d="M444.31,365.62h1.22v38.85a4.87,4.87,0,0,0,9.71,0V337.81h2.24v23.92a3.66,3.66,0,0,0,7.31,0V334.1s-1.79-9.37-10.24-9.74H437.12l-2.47,0c-9-.05-10.82,9.75-10.82,9.75v27.63a3.66,3.66,0,0,0,7.31,0V337.81h2.24v66.66a4.87,4.87,0,0,0,9.7,0V365.62Z"/><circle class="cls-2" cx="444.31" cy="313.77" r="8.44"/><path class="cls-2" d="M491.67,365.62h1.22v38.85a4.87,4.87,0,0,0,9.71,0V337.81h2.24v23.92a3.66,3.66,0,0,0,7.31,0V334.1s-1.79-9.37-10.24-9.74H484.48l-2.47,0c-9-.05-10.82,9.75-10.82,9.75v27.63a3.66,3.66,0,0,0,7.31,0V337.81h2.24v66.66a4.87,4.87,0,0,0,9.7,0V365.62Z"/><circle class="cls-2" cx="491.67" cy="313.77" r="8.44"/><path class="cls-2" d="M302.23,484.85h1.22V523.7a4.87,4.87,0,0,0,9.71,0V457h2.24V481a3.66,3.66,0,1,0,7.31,0V453.33s-1.79-9.38-10.24-9.74H295l-2.47,0c-9-.05-10.82,9.75-10.82,9.75V481a3.66,3.66,0,1,0,7.31,0V457h2.24V523.7a4.87,4.87,0,0,0,9.7,0V484.85Z"/><circle class="cls-2" cx="302.23" cy="432.99" r="8.44"/><path class="cls-2" d="M349.59,484.85h1.22V523.7a4.87,4.87,0,0,0,9.71,0V457h2.24V481a3.66,3.66,0,1,0,7.31,0V453.33s-1.79-9.38-10.24-9.74H342.4l-2.47,0c-9-.05-10.82,9.75-10.82,9.75V481a3.66,3.66,0,1,0,7.31,0V457h2.24V523.7a4.87,4.87,0,0,0,9.7,0V484.85Z"/><circle class="cls-2" cx="349.59" cy="432.99" r="8.44"/><path class="cls-7" d="M386,457V523.7a4.87,4.87,0,0,0,9.7,0V484.85h2.45V523.7a4.87,4.87,0,0,0,9.71,0V457h2.24V481a3.66,3.66,0,1,0,7.31,0V453.33s-1.79-9.38-10.24-9.74H389.76l-2.47,0"/><path class="cls-2" d="M387.29,443.58c-9-.05-10.82,9.75-10.82,9.75V481a3.66,3.66,0,1,0,7.31,0V457H386"/><circle class="cls-7" cx="396.95" cy="432.99" r="8.44"/><path class="cls-7" d="M444.31,484.85h1.22V523.7a4.87,4.87,0,0,0,9.71,0V457h2.24V481a3.66,3.66,0,1,0,7.31,0V453.33S463,444,454.55,443.59H437.12l-2.47,0c-9-.05-10.82,9.75-10.82,9.75V481a3.66,3.66,0,1,0,7.31,0V457h2.24V523.7a4.87,4.87,0,0,0,9.7,0V484.85Z"/><circle class="cls-7" cx="444.31" cy="432.99" r="8.44"/><path class="cls-7" d="M491.67,484.85h1.22V523.7a4.87,4.87,0,0,0,9.71,0V457h2.24V481a3.66,3.66,0,1,0,7.31,0V453.33s-1.79-9.38-10.24-9.74H484.48l-2.47,0c-9-.05-10.82,9.75-10.82,9.75V481a3.66,3.66,0,1,0,7.31,0V457h2.24V523.7a4.87,4.87,0,0,0,9.7,0V484.85Z"/><circle class="cls-7" cx="491.67" cy="432.99" r="8.44"/><text class="cls-3" transform="translate(489.64 474.38)">72% <tspan class="cls-4" x="82.95" y="0">of</tspan><tspan class="cls-4"><tspan class="cls-6" x="0" y="45.6">c</tspan><tspan x="17.14" y="45.6">o</tspan><tspan class="cls-8" x="36.06" y="45.6">m</tspan><tspan x="65.02" y="45.6">mute</tspan><tspan class="cls-9" x="143.22" y="45.6">r</tspan><tspan x="156.82" y="45.6">s </tspan><tspan x="0" y="91.2">ser</tspan><tspan class="cls-6" x="50.16" y="91.2">v</tspan><tspan x="67.22" y="91.2">ed</tspan></tspan></text></g></svg>