<svg xmlns="http://www.w3.org/2000/svg" viewBox="0 0 664.14 594.45"><defs><style>.cls-1{fill:none;}.cls-1,.cls-7{stroke:#000;stroke-miterlimit:10;stroke-width:0.25px;}.cls-2{fill:#c7c8ca;}.cls-3{font-size:38px;font-family:AauxNext-Bold, Aaux Next;font-weight:700;}.cls-4{font-family:AauxNext-Regular, Aaux Next;font-weight:400;}.cls-5{letter-spacing:-0.04em;}.cls-6{letter-spacing:-0.02em;}.cls-7{fill:#e6e7e8;}.cls-8{letter-spacing:-0.01em;}.cls-9{letter-spacing:-0.02em;}</style></defs><title>results</title><g id="Layer_8" data-name="Layer 8"><path class="cls-1" d="M83.33,223.76A92,92,0,0,1,120.77,47.64"/><path class="cls-2" d="M83.34,223.74l37.52-84.27-.09.2v-92A92,92,0,1,1,83.33,223.76"/><text class="cls-3" transform="translate(175.63 105.15)">34 min<tspan class="cls-4"><tspan x="0" y="45.6">t</tspan><tspan class="cls-5" x="10.98" y="45.6">r</tspan><tspan x="24.02" y="45.6">a</tspan><tspan class="cls-6" x="42.03" y="45.6">v</tspan><tspan x="59.09" y="45.6">el</tspan><tspan class="cls-6" x="85.73" y="45.6"> </tspan><tspan x="95.57" y="45.6">time</tspan></tspan></text><path class="cls-2" d="M265.71,351.22h1.23v38.85a4.87,4.87,0,0,0,9.7,0V323.4h2.24v23.92a3.66,3.66,0,1,0,7.31,0V319.7S284.41,310.32,276,310H258.53l-2.48,0c-9-.05-10.82,9.75-10.82,9.75v27.62a3.66,3.66,0,1,0,7.31,0V323.4h2.24v66.67a4.87,4.87,0,0,0,9.71,0V351.22Z"/><circle class="cls-2" cx="265.71" cy="299.36" r="8.44"/><path class="cls-2" d="M313.07,351.22h1.23v38.85a4.87,4.87,0,0,0,9.7,0V323.4h2.24v23.92a3.66,3.66,0,1,0,7.31,0V319.7s-1.78-9.38-10.24-9.74H305.89l-2.48,0c-9-.05-10.82,9.75-10.82,9.75v27.62a3.66,3.66,0,1,0,7.31,0V323.4h2.24v66.67a4.87,4.87,0,0,0,9.71,0V351.22Z"/><circle class="cls-2" cx="313.07" cy="299.36" r="8.44"/><path class="cls-2" d="M360.43,351.22h1.23v38.85a4.87,4.87,0,0,0,9.7,0V323.4h2.24v23.92a3.66,3.66,0,1,0,7.31,0V319.7s-1.78-9.38-10.24-9.74H353.25l-2.48,0c-8.95-.05-10.82,9.75-10.82,9.75v27.62a3.66,3.66,0,1,0,7.31,0V323.4h2.24v66.67a4.87,4.87,0,0,0,9.71,0V351.22Z"/><circle class="cls-2" cx="360.43" cy="299.36" r="8.44"/><path class="cls-2" d="M407.79,351.22H409v38.85a4.87,4.87,0,0,0,9.7,0V323.4H421v23.92a3.66,3.66,0,1,0,7.31,0V319.7S426.49,310.32,418,310H400.61l-2.48,0c-8.95-.05-10.82,9.75-10.82,9.75v27.62a3.66,3.66,0,1,0,7.31,0V323.4h2.24v66.67a4.87,4.87,0,0,0,9.71,0V351.22Z"/><circle class="cls-2" cx="407.79" cy="299.36" r="8.44"/><path class="cls-7" d="M455.15,351.22h1.23v38.85a4.87,4.87,0,0,0,9.7,0V323.4h2.24v23.92a3.66,3.66,0,1,0,7.31,0V319.7s-1.78-9.38-10.24-9.74H455.15"/><path class="cls-2" d="M455.15,310H448l-2.48,0c-8.95-.05-10.82,9.75-10.82,9.75v27.62a3.66,3.66,0,1,0,7.31,0V323.4h2.24v66.67a4.87,4.87,0,0,0,9.71,0V351.22h1.22"/><path class="cls-7" d="M455.28,290.92a8.44,8.44,0,0,1-.13,16.88"/><path class="cls-2" d="M455.15,307.8a8.44,8.44,0,0,1,0-16.88h.13"/><path class="cls-7" d="M265.71,470.44h1.23V509.3a4.87,4.87,0,0,0,9.7,0V442.63h2.24v23.92a3.66,3.66,0,0,0,7.31,0V438.92s-1.78-9.37-10.24-9.73H258.53l-2.48,0c-9-.06-10.82,9.74-10.82,9.74v27.63a3.66,3.66,0,0,0,7.31,0V442.63h2.24V509.3a4.87,4.87,0,0,0,9.71,0V470.44Z"/><circle class="cls-7" cx="265.71" cy="418.59" r="8.44"/><path class="cls-7" d="M313.07,470.44h1.23V509.3a4.87,4.87,0,0,0,9.7,0V442.63h2.24v23.92a3.66,3.66,0,0,0,7.31,0V438.92s-1.78-9.37-10.24-9.73H305.89l-2.48,0c-9-.06-10.82,9.74-10.82,9.74v27.63a3.66,3.66,0,0,0,7.31,0V442.63h2.24V509.3a4.87,4.87,0,0,0,9.71,0V470.44Z"/><circle class="cls-7" cx="313.07" cy="418.59" r="8.44"/><path class="cls-7" d="M360.43,470.44h1.23V509.3a4.87,4.87,0,0,0,9.7,0V442.63h2.24v23.92a3.66,3.66,0,0,0,7.31,0V438.92s-1.78-9.37-10.24-9.73H353.25l-2.48,0c-8.95-.06-10.82,9.74-10.82,9.74v27.63a3.66,3.66,0,0,0,7.31,0V442.63h2.24V509.3a4.87,4.87,0,0,0,9.71,0V470.44Z"/><circle class="cls-7" cx="360.43" cy="418.59" r="8.44"/><path class="cls-7" d="M407.79,470.44H409V509.3a4.87,4.87,0,0,0,9.7,0V442.63H421v23.92a3.66,3.66,0,0,0,7.31,0V438.92s-1.78-9.37-10.24-9.73H400.61l-2.48,0c-8.95-.06-10.82,9.74-10.82,9.74v27.63a3.66,3.66,0,0,0,7.31,0V442.63h2.24V509.3a4.87,4.87,0,0,0,9.71,0V470.44Z"/><circle class="cls-7" cx="407.79" cy="418.59" r="8.44"/><path class="cls-7" d="M455.15,470.44h1.23V509.3a4.87,4.87,0,0,0,9.7,0V442.63h2.24v23.92a3.66,3.66,0,0,0,7.31,0V438.92s-1.78-9.37-10.24-9.73H448l-2.48,0c-8.95-.06-10.82,9.74-10.82,9.74v27.63a3.66,3.66,0,0,0,7.31,0V442.63h2.24V509.3a4.87,4.87,0,0,0,9.71,0V470.44Z"/><circle class="cls-7" cx="455.15" cy="418.59" r="8.44"/><text class="cls-3" transform="translate(453.13 459.97)">44% <tspan class="cls-4" x="85.04" y="0">of</tspan><tspan class="cls-4"><tspan class="cls-6" x="0" y="45.6">c</tspan><tspan x="17.14" y="45.6">o</tspan><tspan class="cls-8" x="36.06" y="45.6">m</tspan><tspan x="65.02" y="45.6">mute</tspan><tspan class="cls-9" x="143.22" y="45.6">r</tspan><tspan x="156.82" y="45.6">s </tspan><tspan x="0" y="91.2">ser</tspan><tspan class="cls-6" x="50.16" y="91.2">v</tspan><tspan x="67.22" y="91.2">ed</tspan></tspan></text></g></svg>