<svg xmlns="http://www.w3.org/2000/svg" viewBox="0 0 637.45 634.38"><defs><style>.cls-1{fill:none;}.cls-1,.cls-10{stroke:#000;stroke-miterlimit:10;stroke-width:0.25px;}.cls-2,.cls-8,.cls-9{fill:#71016d;}.cls-2,.cls-7{opacity:0.3;}.cls-3{font-size:38px;font-family:AauxNext-Bold, Aaux Next;font-weight:700;}.cls-4{font-family:AauxNext-Regular, Aaux Next;font-weight:400;}.cls-5{letter-spacing:-0.04em;}.cls-6{letter-spacing:-0.02em;}.cls-9{opacity:0.4;}.cls-10{fill:#e6e7e8;}.cls-11{letter-spacing:-0.01em;}.cls-12{letter-spacing:-0.02em;}</style></defs><title>results</title><g id="Layer_8" data-name="Layer 8"><path class="cls-1" d="M112.93,240.22a92,92,0,1,1,0-184"/><path class="cls-1" d="M192.62,194.25a92,92,0,0,1-79.69,46"/><path class="cls-2" d="M192.67,194.15l-79.74-46v-92a92.06,92.06,0,0,1,79.69,138.08"/><text class="cls-3" transform="translate(168.97 109.83)">20 min<tspan class="cls-4"><tspan x="0" y="45.6">t</tspan><tspan class="cls-5" x="10.98" y="45.6">r</tspan><tspan x="24.02" y="45.6">a</tspan><tspan class="cls-6" x="42.03" y="45.6">v</tspan><tspan x="59.09" y="45.6">el</tspan><tspan class="cls-6" x="85.73" y="45.6"> </tspan><tspan x="95.57" y="45.6">time</tspan></tspan></text><g class="cls-7"><path class="cls-8" d="M267.44,358.94h1.23v38.85a4.87,4.87,0,0,0,9.71,0V331.13h2.23v23.92a3.66,3.66,0,0,0,7.31,0V327.42s-1.78-9.37-10.24-9.74H260.26l-2.48,0c-8.95-.05-10.82,9.75-10.82,9.75v27.63a3.66,3.66,0,0,0,7.31,0V331.13h2.24v66.66a4.87,4.87,0,0,0,9.71,0V358.94Z"/><circle class="cls-8" cx="267.44" cy="307.09" r="8.44"/></g><g class="cls-7"><path class="cls-8" d="M314.8,358.94H316v38.85a4.87,4.87,0,0,0,9.71,0V331.13H328v23.92a3.66,3.66,0,0,0,7.31,0V327.42s-1.78-9.37-10.24-9.74H307.62l-2.48,0c-8.95-.05-10.82,9.75-10.82,9.75v27.63a3.66,3.66,0,0,0,7.32,0V331.13h2.23v66.66a4.87,4.87,0,0,0,9.71,0V358.94Z"/><circle class="cls-8" cx="314.8" cy="307.09" r="8.44"/></g><g class="cls-7"><path class="cls-8" d="M362.16,358.94h1.23v38.85a4.87,4.87,0,0,0,9.71,0V331.13h2.23v23.92a3.66,3.66,0,0,0,7.31,0V327.42s-1.78-9.37-10.24-9.74H355l-2.48,0c-8.95-.05-10.82,9.75-10.82,9.75v27.63a3.66,3.66,0,0,0,7.32,0V331.13h2.23v66.66a4.87,4.87,0,0,0,9.71,0V358.94Z"/><circle class="cls-8" cx="362.16" cy="307.09" r="8.44"/></g><g class="cls-7"><path class="cls-8" d="M409.52,358.94h1.23v38.85a4.87,4.87,0,0,0,9.71,0V331.13h2.23v23.92a3.66,3.66,0,0,0,7.31,0V327.42s-1.78-9.37-10.24-9.74H402.34l-2.48,0c-8.95-.05-10.81,9.75-10.81,9.75v27.63a3.66,3.66,0,0,0,7.31,0V331.13h2.23v66.66a4.87,4.87,0,0,0,9.71,0V358.94Z"/><circle class="cls-8" cx="409.52" cy="307.09" r="8.44"/></g><path class="cls-2" d="M267.44,478.17h-1.22V517a4.87,4.87,0,0,1-9.71,0V450.36h-2.24v23.91a3.66,3.66,0,1,1-7.31,0V446.65s1.87-9.8,10.82-9.75l2.48,0h17.42c8.46.36,10.24,9.74,10.24,9.74v27.62a3.66,3.66,0,1,1-7.31,0V450.36h-2.23V517a4.87,4.87,0,0,1-9.71,0V478.17Z"/><path class="cls-9" d="M267.57,417.87h-.13a8.39,8.39,0,1,0,.13,0Z"/><g class="cls-7"><path class="cls-8" d="M456.88,358.94h1.23v38.85a4.87,4.87,0,0,0,9.71,0V331.13h2.23v23.92a3.66,3.66,0,0,0,7.31,0V327.42s-1.78-9.37-10.24-9.74H449.7l-2.48,0c-9-.05-10.81,9.75-10.81,9.75v27.63a3.66,3.66,0,0,0,7.31,0V331.13H446v66.66a4.87,4.87,0,0,0,9.71,0V358.94Z"/><circle class="cls-8" cx="456.88" cy="307.09" r="8.44"/></g><g class="cls-7"><path class="cls-8" d="M314.8,478.17H316V517a4.87,4.87,0,0,0,9.71,0V450.36H328v23.91a3.66,3.66,0,1,0,7.31,0V446.65s-1.78-9.38-10.24-9.74H307.62l-2.48,0c-8.95,0-10.82,9.75-10.82,9.75v27.62a3.66,3.66,0,0,0,7.32,0V450.36h2.23V517a4.87,4.87,0,0,0,9.71,0V478.17Z"/><circle class="cls-8" cx="314.8" cy="426.31" r="8.44"/></g><g class="cls-7"><path class="cls-8" d="M362.16,478.17h1.23V517a4.87,4.87,0,0,0,9.71,0V450.36h2.23v23.91a3.66,3.66,0,1,0,7.31,0V446.65s-1.78-9.38-10.24-9.74H355l-2.48,0c-8.95,0-10.82,9.75-10.82,9.75v27.62a3.66,3.66,0,0,0,7.32,0V450.36h2.23V517a4.87,4.87,0,0,0,9.71,0V478.17Z"/><circle class="cls-8" cx="362.16" cy="426.31" r="8.44"/></g><path class="cls-9" d="M399.86,436.9c-8.95,0-10.81,9.75-10.81,9.75v27.62a3.66,3.66,0,1,0,7.31,0V450.36h2.23"/><path class="cls-10" d="M398.59,450.36V517a4.87,4.87,0,0,0,9.71,0V478.17h2.45V517a4.87,4.87,0,0,0,9.71,0V450.36h2.23v23.91a3.66,3.66,0,1,0,7.31,0V446.65s-1.78-9.38-10.24-9.74H402.34l-2.48,0"/><circle class="cls-10" cx="409.52" cy="426.31" r="8.44"/><path class="cls-10" d="M456.88,478.17h1.23V517a4.87,4.87,0,0,0,9.71,0V450.36h2.23v23.91a3.66,3.66,0,1,0,7.31,0V446.65s-1.78-9.38-10.24-9.74H449.7l-2.48,0c-9,0-10.81,9.75-10.81,9.75v27.62a3.66,3.66,0,1,0,7.31,0V450.36H446V517a4.87,4.87,0,0,0,9.71,0V478.17Z"/><circle class="cls-10" cx="456.88" cy="426.31" r="8.44"/><text class="cls-3" transform="translate(453.86 467.69)">82% <tspan class="cls-4" x="84.74" y="0">of</tspan><tspan class="cls-4"><tspan class="cls-6" x="0" y="45.6">c</tspan><tspan x="17.14" y="45.6">o</tspan><tspan class="cls-11" x="36.06" y="45.6">m</tspan><tspan x="65.02" y="45.6">mute</tspan><tspan class="cls-12" x="143.22" y="45.6">r</tspan><tspan x="156.82" y="45.6">s </tspan><tspan x="0" y="91.2">ser</tspan><tspan class="cls-6" x="50.16" y="91.2">v</tspan><tspan x="67.22" y="91.2">ed</tspan></tspan></text></g></svg>