<svg xmlns="http://www.w3.org/2000/svg" viewBox="0 0 635.44 581.65"><defs><style>.cls-1{fill:none;}.cls-1,.cls-9{stroke:#000;stroke-miterlimit:10;stroke-width:0.25px;}.cls-2,.cls-8{fill:#71016d;}.cls-2,.cls-7{opacity:0.3;}.cls-3{font-size:38px;font-family:AauxNext-Bold, Aaux Next;font-weight:700;}.cls-4{font-family:AauxNext-Regular, Aaux Next;font-weight:400;}.cls-5{letter-spacing:-0.04em;}.cls-6{letter-spacing:-0.02em;}.cls-9{fill:#e6e7e8;}.cls-10{letter-spacing:-0.01em;}.cls-11{letter-spacing:-0.02em;}</style></defs><title>results</title><g id="Layer_8" data-name="Layer 8"><path class="cls-1" d="M111.43,231.7a92,92,0,0,1,0-184.06"/><path class="cls-2" d="M111.43,231.7V47.64a92,92,0,0,1,0,184.06"/><text class="cls-3" transform="translate(167.47 101.31)">30 min<tspan class="cls-4"><tspan x="0" y="45.6">t</tspan><tspan class="cls-5" x="10.98" y="45.6">r</tspan><tspan x="24.02" y="45.6">a</tspan><tspan class="cls-6" x="42.03" y="45.6">v</tspan><tspan x="59.09" y="45.6">el</tspan><tspan class="cls-6" x="85.73" y="45.6"> </tspan><tspan x="95.57" y="45.6">time</tspan></tspan></text><g class="cls-7"><path class="cls-8" d="M265.94,350.42h1.23v38.85a4.87,4.87,0,0,0,9.71,0V322.6h2.23v23.92a3.66,3.66,0,1,0,7.31,0V318.9s-1.78-9.38-10.24-9.74H258.76l-2.48,0c-8.95,0-10.81,9.75-10.81,9.75v27.62a3.66,3.66,0,1,0,7.31,0V322.6H255v66.67a4.87,4.87,0,0,0,9.71,0V350.42Z"/><circle class="cls-8" cx="265.94" cy="298.56" r="8.44"/></g><g class="cls-7"><path class="cls-8" d="M313.3,350.42h1.23v38.85a4.87,4.87,0,0,0,9.71,0V322.6h2.23v23.92a3.66,3.66,0,1,0,7.31,0V318.9s-1.78-9.38-10.24-9.74H306.12l-2.48,0c-8.95,0-10.81,9.75-10.81,9.75v27.62a3.66,3.66,0,1,0,7.31,0V322.6h2.23v66.67a4.87,4.87,0,0,0,9.71,0V350.42Z"/><circle class="cls-8" cx="313.3" cy="298.56" r="8.44"/></g><g class="cls-7"><path class="cls-8" d="M360.66,350.42h1.23v38.85a4.87,4.87,0,0,0,9.71,0V322.6h2.23v23.92a3.66,3.66,0,1,0,7.31,0V318.9s-1.78-9.38-10.24-9.74H353.48l-2.47,0c-9,0-10.82,9.75-10.82,9.75v27.62a3.66,3.66,0,1,0,7.31,0V322.6h2.23v66.67a4.87,4.87,0,0,0,9.71,0V350.42Z"/><circle class="cls-8" cx="360.66" cy="298.56" r="8.44"/></g><g class="cls-7"><path class="cls-8" d="M408,350.42h1.23v38.85a4.87,4.87,0,0,0,9.71,0V322.6h2.23v23.92a3.66,3.66,0,1,0,7.31,0V318.9s-1.78-9.38-10.24-9.74H400.84l-2.47,0c-9,0-10.82,9.75-10.82,9.75v27.62a3.66,3.66,0,1,0,7.31,0V322.6h2.23v66.67a4.87,4.87,0,0,0,9.71,0V350.42Z"/><circle class="cls-8" cx="408.02" cy="298.56" r="8.44"/></g><path class="cls-9" d="M265.94,469.64h1.23V508.5a4.87,4.87,0,0,0,9.71,0V441.83h2.23v23.92a3.66,3.66,0,0,0,7.31,0V438.12s-1.78-9.37-10.24-9.73H265.94"/><path class="cls-2" d="M265.94,428.39h-7.18l-2.48,0c-8.95-.06-10.81,9.74-10.81,9.74v27.63a3.66,3.66,0,0,0,7.31,0V441.83H255V508.5a4.87,4.87,0,0,0,9.71,0V469.64h1.22"/><path class="cls-9" d="M266.07,409.35a8.44,8.44,0,0,1-.13,16.88"/><path class="cls-2" d="M265.94,426.23a8.44,8.44,0,0,1,0-16.88h.13"/><g class="cls-7"><path class="cls-8" d="M455.39,350.42h1.22v38.85a4.87,4.87,0,0,0,9.71,0V322.6h2.23v23.92a3.66,3.66,0,1,0,7.31,0V318.9s-1.78-9.38-10.24-9.74H448.2l-2.47,0c-9,0-10.82,9.75-10.82,9.75v27.62a3.66,3.66,0,1,0,7.31,0V322.6h2.23v66.67a4.87,4.87,0,0,0,9.71,0V350.42Z"/><circle class="cls-8" cx="455.39" cy="298.56" r="8.44"/></g><path class="cls-9" d="M313.3,469.64h1.23V508.5a4.87,4.87,0,0,0,9.71,0V441.83h2.23v23.92a3.66,3.66,0,0,0,7.31,0V438.12s-1.78-9.37-10.24-9.73H306.12l-2.48,0c-8.95-.06-10.81,9.74-10.81,9.74v27.63a3.66,3.66,0,0,0,7.31,0V441.83h2.23V508.5a4.87,4.87,0,0,0,9.71,0V469.64Z"/><circle class="cls-9" cx="313.3" cy="417.79" r="8.44"/><path class="cls-9" d="M360.66,469.64h1.23V508.5a4.87,4.87,0,0,0,9.71,0V441.83h2.23v23.92a3.66,3.66,0,0,0,7.31,0V438.12s-1.78-9.37-10.24-9.73H353.48l-2.47,0c-9-.06-10.82,9.74-10.82,9.74v27.63a3.66,3.66,0,0,0,7.31,0V441.83h2.23V508.5a4.87,4.87,0,0,0,9.71,0V469.64Z"/><circle class="cls-9" cx="360.66" cy="417.79" r="8.44"/><path class="cls-9" d="M408,469.64h1.23V508.5a4.87,4.87,0,0,0,9.71,0V441.83h2.23v23.92a3.66,3.66,0,0,0,7.31,0V438.12s-1.78-9.37-10.24-9.73H400.84l-2.47,0c-9-.06-10.82,9.74-10.82,9.74v27.63a3.66,3.66,0,0,0,7.31,0V441.83h2.23V508.5a4.87,4.87,0,0,0,9.71,0V469.64Z"/><circle class="cls-9" cx="408.02" cy="417.79" r="8.44"/><path class="cls-9" d="M455.39,469.64h1.22V508.5a4.87,4.87,0,0,0,9.71,0V441.83h2.23v23.92a3.66,3.66,0,0,0,7.31,0V438.12s-1.78-9.37-10.24-9.73H448.2l-2.47,0c-9-.06-10.82,9.74-10.82,9.74v27.63a3.66,3.66,0,0,0,7.31,0V441.83h2.23V508.5a4.87,4.87,0,0,0,9.71,0V469.64Z"/><circle class="cls-9" cx="455.39" cy="417.79" r="8.44"/><text class="cls-3" transform="translate(452.36 459.17)">55% <tspan class="cls-4" x="84.36" y="0">of</tspan><tspan class="cls-4"><tspan class="cls-6" x="0" y="45.6">c</tspan><tspan x="17.14" y="45.6">o</tspan><tspan class="cls-10" x="36.06" y="45.6">m</tspan><tspan x="65.02" y="45.6">mute</tspan><tspan class="cls-11" x="143.22" y="45.6">r</tspan><tspan x="156.82" y="45.6">s </tspan><tspan x="0" y="91.2">ser</tspan><tspan class="cls-6" x="50.16" y="91.2">v</tspan><tspan x="67.22" y="91.2">ed</tspan></tspan></text></g></svg>